<svg width="19" height="19" viewBox="0 0 19 19" fill="none" xmlns="http://www.w3.org/2000/svg">
<mask id="path-1-inside-1_8_98" fill="white">
<path d="M18.6909 0.309119C18.2788 -0.10304 17.6105 -0.10304 17.1984 0.309119L9.49999 8.00749L1.80165 0.309119C1.38951 -0.10304 0.721268 -0.10304 0.309119 0.309119C-0.10304 0.721266 -0.10304 1.3895 0.309119 1.80165L8.00747 9.50001L0.30914 17.1983C-0.103019 17.6105 -0.103019 18.2787 0.30914 18.6909C0.721289 19.103 1.38953 19.103 1.80167 18.6909L9.49999 10.9925L17.1984 18.6909C17.6105 19.103 18.2788 19.103 18.6909 18.6909C19.103 18.2787 19.103 17.6105 18.6909 17.1984L10.9925 9.50001L18.6909 1.80165C19.103 1.3895 19.103 0.721266 18.6909 0.309119Z"/>
</mask>
<path d="M18.6909 0.309119C18.2788 -0.10304 17.6105 -0.10304 17.1984 0.309119L9.49999 8.00749L1.80165 0.309119C1.38951 -0.10304 0.721268 -0.10304 0.309119 0.309119C-0.10304 0.721266 -0.10304 1.3895 0.309119 1.80165L8.00747 9.50001L0.30914 17.1983C-0.103019 17.6105 -0.103019 18.2787 0.30914 18.6909C0.721289 19.103 1.38953 19.103 1.80167 18.6909L9.49999 10.9925L17.1984 18.6909C17.6105 19.103 18.2788 19.103 18.6909 18.6909C19.103 18.2787 19.103 17.6105 18.6909 17.1984L10.9925 9.50001L18.6909 1.80165C19.103 1.3895 19.103 0.721266 18.6909 0.309119Z" fill="#0071BC"/>
<path d="M18.6909 0.309119L-8.18016 27.1782L-8.17982 27.1785L18.6909 0.309119ZM17.1984 0.309119L44.0684 27.1792L44.0694 27.1782L17.1984 0.309119ZM9.49999 8.00749L-17.3701 34.8775L9.4999 61.7476L36.37 34.8776L9.49999 8.00749ZM1.80165 0.309119L-25.0687 27.1789L-25.0685 27.1791L1.80165 0.309119ZM0.309119 0.309119L27.1788 27.1795L27.1795 27.1789L0.309119 0.309119ZM0.309119 1.80165L27.1792 -25.0684L27.1788 -25.0688L0.309119 1.80165ZM8.00747 9.50001L34.8774 36.3702L61.7477 9.50012L34.8775 -17.37L8.00747 9.50001ZM0.30914 17.1983L-26.5608 -9.67187L-26.5633 -9.66939L0.30914 17.1983ZM0.30914 18.6909L-26.5633 45.5586L-26.5602 45.5617L0.30914 18.6909ZM1.80167 18.6909L28.671 45.5617L28.6718 45.5609L1.80167 18.6909ZM9.49999 10.9925L36.37 -15.8775L9.49986 -42.7477L-17.3702 -15.8774L9.49999 10.9925ZM17.1984 18.6909L-9.67166 45.561L-9.67165 45.561L17.1984 18.6909ZM18.6909 18.6909L45.5609 45.561L45.5644 45.5575L18.6909 18.6909ZM18.6909 17.1984L45.5609 -9.6717L45.5609 -9.6717L18.6909 17.1984ZM10.9925 9.50001L-15.8775 -17.3701L-42.7477 9.49998L-15.8775 36.3701L10.9925 9.50001ZM18.6909 1.80165L45.5609 28.6718L45.5616 28.671L18.6909 1.80165ZM45.562 -26.5599C30.3097 -41.8134 5.57959 -41.8134 -9.67269 -26.5599L44.0694 27.1782C29.6414 41.6073 6.24787 41.6073 -8.18016 27.1782L45.562 -26.5599ZM-9.67164 -26.561L-17.37 -18.8626L36.37 34.8776L44.0684 27.1792L-9.67164 -26.561ZM36.3701 -18.8625L28.6718 -26.5609L-25.0685 27.1791L-17.3701 34.8775L36.3701 -18.8625ZM28.672 -26.5606C13.4199 -41.8131 -11.3091 -41.8131 -26.5613 -26.5606L27.1795 27.1789C12.7516 41.607 -10.6409 41.607 -25.0687 27.1789L28.672 -26.5606ZM-26.5606 -26.5613C-41.8131 -11.3092 -41.8131 13.4199 -26.5606 28.6721L27.1788 -25.0688C41.6071 -10.6409 41.6071 12.7517 27.1788 27.1795L-26.5606 -26.5613ZM-26.561 28.6717L-18.8626 36.3701L34.8775 -17.37L27.1792 -25.0684L-26.561 28.6717ZM-18.8625 -17.3701L-26.5608 -9.67187L27.1791 44.0684L34.8774 36.3702L-18.8625 -17.3701ZM-26.5633 -9.66939C-41.8122 5.58222 -41.8122 30.307 -26.5633 45.5586L27.1816 -8.17677C41.6062 6.25038 41.6062 29.6388 27.1816 44.066L-26.5633 -9.66939ZM-26.5602 45.5617C-11.3083 60.8128 13.4191 60.8128 28.671 45.5617L-25.0677 -8.17986C-10.6401 -22.6067 12.7509 -22.6067 27.1785 -8.17986L-26.5602 45.5617ZM28.6718 45.5609L36.3702 37.8625L-17.3702 -15.8774L-25.0685 -8.17904L28.6718 45.5609ZM-17.37 37.8626L-9.67166 45.561L44.0684 -8.17917L36.37 -15.8775L-17.37 37.8626ZM-9.67165 45.561C5.58039 60.813 30.3089 60.813 45.5609 45.561L-8.17913 -8.17917C6.24866 -22.6069 29.6406 -22.6069 44.0684 -8.17917L-9.67165 45.561ZM45.5644 45.5575C60.81 30.3081 60.8149 5.58226 45.5609 -9.6717L-8.17913 44.0685C-22.6089 29.6388 -22.6039 6.24927 -8.18257 -8.17573L45.5644 45.5575ZM45.5609 -9.6717L37.8625 -17.3701L-15.8775 36.3701L-8.17913 44.0685L45.5609 -9.6717ZM37.8625 36.3701L45.5609 28.6718L-8.1791 -25.0685L-15.8775 -17.3701L37.8625 36.3701ZM45.5616 28.671C60.8128 13.4191 60.8128 -11.3084 45.5616 -26.5603L-8.17982 27.1785C-22.6067 12.7509 -22.6067 -10.6401 -8.17982 -25.0677L45.5616 28.671Z" fill="#0071BC" mask="url(#path-1-inside-1_8_98)"/>
</svg>
